<?xml version="1.0" encoding="utf-8"?>
<!-- Generator: Adobe Illustrator 27.0.1, SVG Export Plug-In . SVG Version: 6.00 Build 0)  -->
<svg version="1.1" id="Layer_1" xmlns="http://www.w3.org/2000/svg" xmlns:xlink="http://www.w3.org/1999/xlink" x="0px" y="0px"
	 viewBox="0 0 1285.8 328.7" style="enable-background:new 0 0 1285.8 328.7;" xml:space="preserve">
<path d="M175,184.3H56.8l-26.6,67.2H0L102.7,0H129l102.4,251.5h-29.8L175,184.3L175,184.3z M164.9,158.8L116,35.2L66.8,158.8
	L164.9,158.8L164.9,158.8z"/>
<path d="M459.2,46.7h-32.7V3.6h32.7L459.2,46.7L459.2,46.7z M430.1,85.5h25.9v166h-25.9C430.1,251.5,430.1,85.5,430.1,85.5z"/>
<path d="M659.9,168.5c0,51.4-37.7,88.4-89.8,88.4c-51.7,0-89.8-37-89.8-88.4s38.1-88.4,89.8-88.4
	C622.2,80.1,659.9,117.1,659.9,168.5L659.9,168.5z M507.6,168.5c0,38.1,26.6,62.9,62.5,62.9s62.5-24.8,62.5-62.9
	s-26.6-62.9-62.5-62.9S507.6,130.4,507.6,168.5z"/>
<path d="M710.1,251.5h-25.9V0h25.9V251.5z"/>
<path d="M914,168.5c0,51.4-37.7,88.4-89.8,88.4c-51.7,0-89.8-37-89.8-88.4s38.1-88.4,89.8-88.4C876.3,80.1,914,117.1,914,168.5
	L914,168.5z M761.7,168.5c0,38.1,26.6,62.9,62.5,62.9s62.5-24.8,62.5-62.9s-26.6-62.9-62.5-62.9S761.7,130.4,761.7,168.5z"/>
<path d="M964.8,321.2l5-25.1c21.2,4.7,42.4,7.5,58.9,7.5c35.6,0,51-15.1,51-53.9V222h-0.7c-11.5,20.8-32.7,34.8-62.9,34.8
	c-45.6,0-82.3-33.4-82.3-88.4s36.6-88.4,82.3-88.4c30.2,0,51.4,14,62.9,34.8h0.7V85.5h25.9v166c-1.1,64.7-35.2,77.2-76.9,77.2
	C1008.6,328.7,984.9,325.5,964.8,321.2L964.8,321.2z M1081.2,168.5c0-36.6-23.7-62.9-60-62.9s-60,26.2-60,62.9s23.7,62.9,60,62.9
	S1081.2,205.1,1081.2,168.5z"/>
<path d="M1285.8,85.5l-108.5,237.8h-27.7l42.4-89.5l-69-148.4h30.5l51.7,119.3L1257,85.5L1285.8,85.5L1285.8,85.5z"/>
<path d="M410.4,251.5h-25.5c0-53.1-15.7-59.3-32-59.3c-25.4,0-55,28.4-82,59.3h-33.5c49.2-59.5,83.8-84.9,115.5-84.9
	C391.1,166.6,410.4,195.2,410.4,251.5z"/>
<path d="M221.3,85.5h25.5c0,53.1,15.7,59.3,32,59.3c25.4,0,55-28.4,82-59.3h33.5c-49.2,59.5-83.8,84.9-115.5,84.9
	C240.7,170.4,221.3,141.8,221.3,85.5z"/>
</svg>
