<?xml version="1.0" encoding="UTF-8"?><svg id="Layer_1" xmlns="http://www.w3.org/2000/svg" viewBox="0 0 1285.7703 328.7194"><defs><style>.cls-1{fill:#f7f7ff;}</style></defs><path class="cls-1" d="M174.9572,184.2989H56.7598l-26.5826,67.1799H0L102.7447,0h26.2277l102.3875,251.4789h-29.8178l-26.5849-67.1799Zm-10.0606-25.5087L116.0383,35.2053l-49.2178,123.5849h98.0762Z"/><path class="cls-1" d="M459.1539,46.7015h-32.6913V3.5924h32.6913V46.7015Zm-29.1012,38.8h25.8682V251.4789h-25.8682V85.5015Z"/><path class="cls-1" d="M659.8842,168.4913c0,51.3723-37.7216,88.3773-89.8129,88.3773-51.7341,0-89.8152-37.005-89.8152-88.3773s38.0811-88.3773,89.8152-88.3773c52.0913,0,89.8129,37.0027,89.8129,88.3773Zm-152.3243,0c0,38.0811,26.5849,62.8686,62.5114,62.8686s62.5091-24.7875,62.5091-62.8686-26.5849-62.8709-62.5091-62.8709-62.5114,24.7898-62.5114,62.8709Z"/><path class="cls-1" d="M710.0853,251.4789h-25.8659V0h25.8659V251.4789Z"/><path class="cls-1" d="M914.0485,168.4913c0,51.3723-37.7216,88.3773-89.8129,88.3773-51.7341,0-89.8152-37.005-89.8152-88.3773s38.0811-88.3773,89.8152-88.3773c52.0913,0,89.8129,37.0027,89.8129,88.3773Zm-152.3243,0c0,38.0811,26.5849,62.8686,62.5114,62.8686s62.5091-24.7875,62.5091-62.8686-26.5849-62.8709-62.5091-62.8709-62.5114,24.7898-62.5114,62.8709Z"/><path class="cls-1" d="M964.8026,321.1751l5.0303-25.1493c21.1974,4.6708,42.3924,7.5443,58.919,7.5443,35.5648,0,51.0129-15.0886,51.0129-53.8887v-27.661h-.7189c-11.4939,20.8356-32.6913,34.8481-62.8686,34.8481-45.6254,0-82.2709-33.4125-82.2709-88.3773s36.6455-88.3773,82.2709-88.3773c30.1773,0,51.3747,14.0102,62.8686,34.8481h.7189v-29.4606h25.8682V251.4789c-1.0784,64.6659-35.2076,77.2406-76.8811,77.2406-20.119,0-43.8303-3.233-63.9493-7.5443Zm116.4-152.6838c0-36.6455-23.7114-62.8709-59.9951-62.8709s-59.9951,26.2254-59.9951,62.8709,23.7091,62.8686,59.9951,62.8686,59.9951-26.2254,59.9951-62.8686Z"/><path class="cls-1" d="M1285.7703,85.5015l-108.4963,237.8281h-27.6633l42.3924-89.4534-68.9773-148.3747h30.5368l51.7318,119.2735,51.7341-119.2735h28.7417Z"/><path class="cls-1" d="M410.4195,251.4581h-25.4975c0-53.1398-15.7014-59.3495-32.0297-59.3495-25.3895,0-55.0471,28.3911-82.0416,59.3495h-33.4851c49.174-59.4628,83.8136-84.8517,115.5267-84.8517,38.1784,0,57.5272,28.5504,57.5272,84.8517Z"/><path class="cls-1" d="M221.3255,85.5015h25.4975c0,53.1398,15.7014,59.3495,32.0297,59.3495,25.3895,0,55.0471-28.3911,82.0416-59.3495h33.4851c-49.174,59.4628-83.8136,84.8517-115.5267,84.8517-38.1784,0-57.5272-28.5504-57.5272-84.8517Z"/></svg>